<svg xmlns="http://www.w3.org/2000/svg" xmlns:xlink="http://www.w3.org/1999/xlink" viewBox="0 0 526.97 90.32"><defs><style>.cls-1{opacity:0.72;}.cls-2{fill:#040006;}.cls-3{fill:#009ce0;}.cls-4{fill:url(#Degradado_sin_nombre_35);}.cls-5{fill:url(#Degradado_sin_nombre_40);}</style><radialGradient id="Degradado_sin_nombre_35" cx="126.25" cy="45.26" r="45.06" gradientUnits="userSpaceOnUse"><stop offset="0" stop-color="#fff" stop-opacity="0.98"/><stop offset="0" stop-opacity="0.95"/></radialGradient><radialGradient id="Degradado_sin_nombre_40" cx="65.31" cy="47.72" r="11.28" gradientUnits="userSpaceOnUse"><stop offset="0" stop-color="#fff" stop-opacity="0.98"/><stop offset="0" stop-opacity="0.95"/><stop offset="0.68" stop-opacity="0.95"/></radialGradient></defs><title>logo</title><g id="Punto_gris_copia_Imagen" data-name="Punto gris copia Imagen" class="cls-1"><path class="cls-2" d="M277.67,60.49H265.51V98.17h-4.94V60.49H248.43V56h29.25v4.47Z" transform="translate(-54.03 -36.32)"/><path class="cls-2" d="M299.34,73a5.89,5.89,0,0,0-3.65-1,6.15,6.15,0,0,0-5.16,2.91,13.45,13.45,0,0,0-2.07,7.94V98.17h-4.82V68.07h4.82v6.2h0.12a10.51,10.51,0,0,1,3.15-5,7.17,7.17,0,0,1,4.73-1.78,7.87,7.87,0,0,1,2.88.41v5Z" transform="translate(-54.03 -36.32)"/><path class="cls-2" d="M326.12,98.17H321.3v-4.7h-0.12a10.09,10.09,0,0,1-9.26,5.41,9.9,9.9,0,0,1-7-2.38,8.25,8.25,0,0,1-2.54-6.32q0-8.43,9.94-9.82l9-1.26q0-7.67-6.2-7.67a14.82,14.82,0,0,0-9.82,3.7V70.19a18.65,18.65,0,0,1,10.23-2.82q10.61,0,10.61,11.23V98.17ZM321.3,82.94l-7.26,1A11.79,11.79,0,0,0,309,85.6q-1.71,1.19-1.71,4.22a4.59,4.59,0,0,0,1.57,3.6,6.07,6.07,0,0,0,4.19,1.4A7.74,7.74,0,0,0,319,92.3a9,9,0,0,0,2.34-6.36v-3Z" transform="translate(-54.03 -36.32)"/><path class="cls-2" d="M358.86,68.07l-12,30.1h-4.73l-11.41-30.1H336l7.64,21.87a19.58,19.58,0,0,1,1.06,4.2h0.12a19.82,19.82,0,0,1,.94-4.09l8-22h5.08Z" transform="translate(-54.03 -36.32)"/><path class="cls-2" d="M388.23,84.33H367q0.12,5,2.7,7.76a9.32,9.32,0,0,0,7.11,2.73,14.79,14.79,0,0,0,9.35-3.35V96q-4,2.88-10.49,2.88t-10-4.1Q362,90.67,362,83.24q0-7,4-11.45a12.77,12.77,0,0,1,9.89-4.42q5.91,0,9.14,3.82t3.23,10.61v2.53Zm-4.94-4.09a9.8,9.8,0,0,0-2-6.5,6.86,6.86,0,0,0-5.51-2.32A7.79,7.79,0,0,0,370,73.86,11.07,11.07,0,0,0,367,80.24h16.26Z" transform="translate(-54.03 -36.32)"/><path class="cls-2" d="M400.34,98.17h-4.82V53.61h4.82V98.17Z" transform="translate(-54.03 -36.32)"/><path class="cls-2" d="M419.54,83.65V98.17H410V56h14.87q15.93,0,15.93,13.43a12.89,12.89,0,0,1-4.57,10.27q-4.57,3.92-12.21,3.92h-4.53Zm0-20.34V76.45h3.73q7.58,0,7.58-6.64t-7.58-6.5h-3.73Z" transform="translate(-54.03 -36.32)"/><path class="cls-2" d="M460.46,98.9q-7.53,0-11.83-4.22t-4.31-11.45q0-7.46,4.47-11.68t12.08-4.22q7.5,0,11.76,4.22t4.26,11.15q0,7.5-4.39,11.84T460.46,98.9Zm0.23-24.45a6.2,6.2,0,0,0-5.11,2.26,10,10,0,0,0-1.82,6.41q0,8.67,7,8.67,6.67,0,6.67-8.91Q467.42,74.45,460.69,74.45Z" transform="translate(-54.03 -36.32)"/><path class="cls-2" d="M487.62,63.31a5.43,5.43,0,0,1-3.85-1.4,4.5,4.5,0,0,1-1.5-3.42,4.34,4.34,0,0,1,1.5-3.41,6.29,6.29,0,0,1,7.72,0A4.36,4.36,0,0,1,493,58.49,4.48,4.48,0,0,1,491.48,62,5.52,5.52,0,0,1,487.62,63.31Zm4.58,34.86h-9.29V68.07h9.29v30.1Z" transform="translate(-54.03 -36.32)"/><path class="cls-2" d="M529.09,98.17h-9.26V81.44q0-7-5-7a5,5,0,0,0-4,1.85,7.05,7.05,0,0,0-1.56,4.7V98.17H500V68.07h9.29v4.76h0.12a10.64,10.64,0,0,1,9.67-5.5q10,0,10,12.4V98.17Z" transform="translate(-54.03 -36.32)"/><path class="cls-2" d="M554.64,97.82a13.74,13.74,0,0,1-6.2,1.09q-9.82,0-9.82-10.2V74.92h-4.88V68.07h4.88v-6.5l9.26-2.65v9.14h6.76v6.85h-6.76V87.09q0,4.7,3.73,4.7a6.29,6.29,0,0,0,3-.85v6.88Z" transform="translate(-54.03 -36.32)"/><path class="cls-2" d="M557.9,97.37V89.85a19.75,19.75,0,0,0,4.57,2.06,15.15,15.15,0,0,0,4.31.68,9.23,9.23,0,0,0,3.9-.68,2.18,2.18,0,0,0,1.42-2.06,1.91,1.91,0,0,0-.65-1.47,6,6,0,0,0-1.66-1,18.9,18.9,0,0,0-2.22-.79q-1.21-.35-2.32-0.79a22.28,22.28,0,0,1-3.16-1.45,9.14,9.14,0,0,1-2.29-1.81,7.1,7.1,0,0,1-1.41-2.38,9.5,9.5,0,0,1-.48-3.2,8.25,8.25,0,0,1,1.1-4.35,9,9,0,0,1,2.94-3,13.42,13.42,0,0,1,4.2-1.71,21.93,21.93,0,0,1,4.92-.54,27.36,27.36,0,0,1,4.06.31,30.34,30.34,0,0,1,4.06.9v7.17a14.67,14.67,0,0,0-3.78-1.54,15.94,15.94,0,0,0-4-.51,8.79,8.79,0,0,0-1.72.16,5.68,5.68,0,0,0-1.43.47,2.63,2.63,0,0,0-1,.79,1.82,1.82,0,0,0-.35,1.1,2,2,0,0,0,.53,1.41,4.58,4.58,0,0,0,1.38,1,13.58,13.58,0,0,0,1.9.76l2.07,0.69a27,27,0,0,1,3.35,1.41,10.72,10.72,0,0,1,2.57,1.79,7,7,0,0,1,1.65,2.41,9.64,9.64,0,0,1-.59,7.86,9.3,9.3,0,0,1-3.09,3.09,14,14,0,0,1-4.44,1.73,24.63,24.63,0,0,1-5.22.54A26.91,26.91,0,0,1,557.9,97.37Z" transform="translate(-54.03 -36.32)"/><circle class="cls-3" cx="67.72" cy="45.16" r="45.16"/><circle class="cls-4" cx="126.25" cy="45.26" r="45.06"/><path class="cls-5" d="M65.31,36.44A11.28,11.28,0,1,1,54,47.72,11.1,11.1,0,0,1,65.31,36.44Z" transform="translate(-54.03 -36.32)"/></g></svg>