<svg id="Logo_fondo_blanco_copia" data-name="Logo fondo blanco copia" xmlns="http://www.w3.org/2000/svg" xmlns:xlink="http://www.w3.org/1999/xlink" viewBox="0 0 338.77 152.46"><defs><style>.cls-1{fill:#fff;}.cls-2{opacity:0.72;}.cls-3{fill:#009ce0;}.cls-4{fill:url(#Degradado_sin_nombre_3);}.cls-5{fill:url(#Degradado_sin_nombre_2);}</style><radialGradient id="Degradado_sin_nombre_3" cx="267.89" cy="174.39" r="45.06" gradientTransform="matrix(1, 0, 0, -1, -57.89, 219.65)" gradientUnits="userSpaceOnUse"><stop offset="0" stop-color="#fff" stop-opacity="0.98"/><stop offset="0" stop-opacity="0.95"/></radialGradient><radialGradient id="Degradado_sin_nombre_2" cx="206.95" cy="171.93" r="11.28" gradientTransform="matrix(1, 0, 0, -1, -54.03, 256.72)" gradientUnits="userSpaceOnUse"><stop offset="0" stop-color="#fff" stop-opacity="0.98"/><stop offset="0" stop-opacity="0.95"/><stop offset="0.68" stop-opacity="0.95"/></radialGradient></defs><title>logo-redcard-v</title><g id="TravelPoints"><path class="cls-1" d="M73.13,185.67H57.89v-2.89H91.61v2.89H76.38v39.16H73.13V185.67Z" transform="translate(-57.89 -73.39)"/><path class="cls-1" d="M93.72,195.11l0.12,5.29c1.87-4,6.08-5.59,9.87-5.59a11.62,11.62,0,0,1,6.38,1.74L108.77,199a9.57,9.57,0,0,0-5.06-1.38,9.88,9.88,0,0,0-9.81,9.92v17.32h-3V195.11h2.77Z" transform="translate(-57.89 -73.39)"/><path class="cls-1" d="M143.15,195.11v29.71h-3v-6.32a13.91,13.91,0,0,1-12.16,6.8,15.28,15.28,0,0,1,0-30.56,13.5,13.5,0,0,1,12.16,6.86v-6.5h3ZM115.87,210c0,7.46,5.42,12.45,12.16,12.45,16.56,0,16.56-24.84,0-24.84C121.29,197.58,115.87,202.51,115.87,210Z" transform="translate(-57.89 -73.39)"/><path class="cls-1" d="M146.45,195.11h3.25l10.84,26.29,10.84-26.29h3.25l-12.46,29.71h-3.25Z" transform="translate(-57.89 -73.39)"/><path class="cls-1" d="M177.82,210a15,15,0,0,1,15.11-15.34c8.37,0,15.84,5.11,14.69,16.72H180.83c0.6,7,6,11,12.1,11,3.91,0,8.49-1.56,10.72-4.51l2.11,1.68c-2.89,3.79-8.07,5.71-12.82,5.71C184.56,225.25,177.82,219.41,177.82,210Zm27.16-1.2c-0.06-7.34-4.88-11.43-12-11.43-6.14,0-11.44,4.15-12.1,11.43H205Z" transform="translate(-57.89 -73.39)"/><path class="cls-1" d="M218.22,182.72v42.11h-3V182.72h3Z" transform="translate(-57.89 -73.39)"/><path class="cls-1" d="M246,212.43H234.05v12.39H226.1V182.72c6.62,0,13.25-.06,19.87-0.06C266.57,182.66,266.63,212.43,246,212.43Zm-11.92-7.28H246c10.18,0,10.12-14.92,0-14.92H234.05v14.92Z" transform="translate(-57.89 -73.39)"/><path class="cls-1" d="M294.5,210c0,8.54-5.84,15.46-15.47,15.46s-15.41-6.92-15.41-15.46,5.9-15.46,15.35-15.46S294.5,201.55,294.5,210ZM271,210c0,4.51,2.71,8.72,8.07,8.72s8.07-4.21,8.07-8.72-3.13-8.78-8.07-8.78C273.73,201.25,271,205.58,271,210Z" transform="translate(-57.89 -73.39)"/><path class="cls-1" d="M307.56,186.81c0,5.71-8.67,5.71-8.67,0S307.56,181.1,307.56,186.81Zm-8,8.24v29.77h7.35V195.05h-7.35Z" transform="translate(-57.89 -73.39)"/><path class="cls-1" d="M335.38,224.82V209.31c0-4.51-2.47-7.94-7.17-7.94-4.52,0-7.59,3.79-7.59,8.3v15.16h-7.29V195.11h6.56l0.48,4c3-2.95,6-4.45,9.75-4.45,7,0,12.58,5.23,12.58,14.56v15.58h-7.35Z" transform="translate(-57.89 -73.39)"/><path class="cls-1" d="M358.14,186.81v8.42h8.19v6.32h-8.25v12.81c0,2.83,1.57,4.21,3.85,4.21a8.39,8.39,0,0,0,3.55-.9l2,6.26a16.44,16.44,0,0,1-6.08,1.26c-6.44.24-10.66-3.43-10.66-10.83V201.55h-5.54v-6.32h5.54v-7.64Z" transform="translate(-57.89 -73.39)"/><path class="cls-1" d="M391.19,203.05a10,10,0,0,0-7.35-2.65c-3.49,0-5.42,1.08-5.42,2.95s1.75,3,5.54,3.25c5.6,0.36,12.7,1.62,12.7,9.5,0,5.23-4.27,9.74-12.76,9.74-4.7,0-9.39-.78-13.73-5.29l3.61-5.23c2.11,2.35,6.92,4.09,10.24,4.15,2.77,0.06,5.36-1.38,5.36-3.55s-1.69-2.89-5.9-3.13c-5.6-.42-12.28-2.47-12.28-9.2s7.1-9.26,12.52-9.26c4.64,0,8.13.9,11.56,3.91Z" transform="translate(-57.89 -73.39)"/></g><g id="Punto_gris_copia_Imagen" data-name="Punto gris copia Imagen" class="cls-2"><circle class="cls-3" cx="151.47" cy="45.16" r="45.16"/><circle class="cls-4" cx="210" cy="45.26" r="45.06"/><path class="cls-5" d="M152.92,73.51a11.28,11.28,0,1,1-11.31,11.28,11.1,11.1,0,0,1,10.92-11.28h0.39Z" transform="translate(-57.89 -73.39)"/></g></svg>